<svg width="134" height="28" viewBox="0 0 134 28" fill="none" xmlns="http://www.w3.org/2000/svg">
<path d="M44.741 6.72045V20.7886H47.8874V9.54428H55.3976V20.7886H58.5692V6.72045H44.741ZM64.0747 13.7672C64.0747 10.867 66.1298 9.11133 68.7684 9.11133C71.4076 9.11133 73.4622 10.867 73.4622 13.7672C73.4622 16.6673 71.4076 18.4227 68.7684 18.4227C66.1298 18.4227 64.0747 16.6673 64.0747 13.7672ZM76.6334 13.7672C76.6334 9.34047 73.0307 6.38949 68.7684 6.38949C64.5062 6.38949 60.9035 9.34047 60.9035 13.7672C60.9035 18.1939 64.5062 21.1449 68.7684 21.1449C73.0307 21.1449 76.6334 18.1939 76.6334 13.7672ZM82.3932 6.72045L80.5157 16.7945C80.3637 17.5576 79.8811 17.8884 79.1455 17.8884H77.6235V20.7886H79.2975C81.6067 20.7886 83.1543 19.6946 83.6108 17.2017L85.0322 9.56928H90.4105V20.7886H93.5824V6.72045H82.3932ZM96.6267 6.72045V20.7886H99.7482V14.8357H101.879C102.361 18.8806 105.583 21.1449 109.491 21.1449C113.728 21.1449 117.153 18.4736 117.153 13.7672C117.153 9.06093 113.728 6.38949 109.491 6.38949C105.813 6.38949 102.742 8.39948 102.006 11.9861H99.7482V6.72045H96.6267ZM104.975 13.7672C104.975 10.867 106.523 9.11133 109.491 9.11133C112.46 9.11133 114.007 10.867 114.007 13.7672C114.007 16.6673 112.46 18.4227 109.491 18.4227C106.523 18.4227 104.975 16.6673 104.975 13.7672ZM134 10.1549C132.554 7.68683 130.17 6.38949 126.897 6.38949C122.481 6.38949 119.056 9.21371 119.056 13.7672C119.056 18.321 122.405 21.1449 126.897 21.1449C130.17 21.1449 132.554 19.8475 134 17.38L131.539 15.9551C130.473 17.4816 129.079 18.321 126.845 18.321C124.105 18.321 122.203 16.4894 122.203 13.7672C122.203 10.9942 124.029 9.21371 126.845 9.21371C129.079 9.21371 130.473 10.0531 131.539 11.5793L134 10.1549Z" fill="white"/>
<path fill-rule="evenodd" clip-rule="evenodd" d="M16.3245 0.806032L14.6661 10.7967C14.627 11.0345 14.3717 11.1415 14.1488 11.0545L9.16436 9.12369C8.54733 8.88465 8.34101 8.41995 8.42585 7.90648L9.48734 1.51293C9.57289 1.00056 9.91769 0.627676 10.5794 0.601877L15.9184 0.393585C16.1576 0.384768 16.3643 0.568676 16.3245 0.806032ZM2.01551 7.99901L10.9897 12.6482C11.2028 12.7587 11.2264 13.0351 11.0756 13.2213L7.71237 17.3849C7.29608 17.9001 6.79212 17.9545 6.3311 17.7158L0.587775 14.7407C0.12712 14.5017 -0.120097 14.0582 0.0581008 13.419L1.49957 8.25999C1.56401 8.02835 1.80245 7.88852 2.01551 7.99901ZM4.41633 23.8268L11.6092 16.7161C11.7804 16.5469 12.0494 16.6105 12.1797 16.8122L15.0831 21.3091C15.4426 21.8663 15.3377 22.3639 14.9686 22.7294L10.3653 27.2796C9.99586 27.6447 9.49858 27.7429 8.94777 27.3743L4.504 24.3996C4.30469 24.2665 4.24585 23.9959 4.41633 23.8268ZM20.2559 26.4064L15.6811 17.376C15.5723 17.1614 15.7145 16.9241 15.9452 16.8608L21.1 15.4516C21.7386 15.2772 22.1794 15.5282 22.4144 15.9922L25.3417 21.7706C25.5766 22.2346 25.5192 22.7396 25.0022 23.1541L20.8264 26.4967C20.639 26.6464 20.364 26.6207 20.2559 26.4064ZM27.5404 12.2265L17.5508 13.7305C17.3134 13.7658 17.1335 13.5557 17.1465 13.3163L17.4391 7.96651C17.4755 7.30441 17.8522 6.96408 18.3654 6.88674L24.7574 5.92479C25.2705 5.84712 25.7305 6.06146 25.9594 6.68399L27.8059 11.7117C27.8883 11.937 27.7777 12.1909 27.5404 12.2265Z" fill="#F9AA24"/>
</svg>
